<mxfile host="app.diagrams.net" modified="2024-03-24T13:26:24.610Z" agent="Mozilla/5.0 (Windows NT 10.0; Win64; x64) AppleWebKit/537.36 (KHTML, like Gecko) Chrome/121.0.0.0 Safari/537.36 OPR/107.0.0.0" etag="YlGvTPD5fxU_6AqjnkcH" version="24.0.2" type="device">
  <diagram name="Strona-1" id="4Nua5wrlqRScjy9kVWuu">
    <mxGraphModel dx="2460" dy="766" grid="1" gridSize="10" guides="1" tooltips="1" connect="1" arrows="1" fold="1" page="1" pageScale="1" pageWidth="827" pageHeight="1169" math="0" shadow="0">
      <root>
        <mxCell id="0" />
        <mxCell id="1" parent="0" />
        <mxCell id="uAZB_q2s0tMn4ukExa00-1" value="public abstract class Beverage" style="swimlane;fontStyle=0;childLayout=stackLayout;horizontal=1;startSize=30;horizontalStack=0;resizeParent=1;resizeParentMax=0;resizeLast=0;collapsible=1;marginBottom=0;whiteSpace=wrap;html=1;fillColor=#0050ef;fontColor=#ffffff;strokeColor=#001DBC;" vertex="1" parent="1">
          <mxGeometry x="290" y="40" width="240" height="120" as="geometry" />
        </mxCell>
        <mxCell id="uAZB_q2s0tMn4ukExa00-2" value="prop: String description;" style="text;strokeColor=#C73500;fillColor=#fa6800;align=left;verticalAlign=middle;spacingLeft=4;spacingRight=4;overflow=hidden;points=[[0,0.5],[1,0.5]];portConstraint=eastwest;rotatable=0;whiteSpace=wrap;html=1;fontColor=#000000;" vertex="1" parent="uAZB_q2s0tMn4ukExa00-1">
          <mxGeometry y="30" width="240" height="30" as="geometry" />
        </mxCell>
        <mxCell id="uAZB_q2s0tMn4ukExa00-3" value="func: public String getDescription()" style="text;strokeColor=#005700;fillColor=#008a00;align=left;verticalAlign=middle;spacingLeft=4;spacingRight=4;overflow=hidden;points=[[0,0.5],[1,0.5]];portConstraint=eastwest;rotatable=0;whiteSpace=wrap;html=1;fontColor=#ffffff;" vertex="1" parent="uAZB_q2s0tMn4ukExa00-1">
          <mxGeometry y="60" width="240" height="30" as="geometry" />
        </mxCell>
        <mxCell id="uAZB_q2s0tMn4ukExa00-4" value="func: public abstract double cost()" style="text;strokeColor=#3700CC;fillColor=#6a00ff;align=left;verticalAlign=middle;spacingLeft=4;spacingRight=4;overflow=hidden;points=[[0,0.5],[1,0.5]];portConstraint=eastwest;rotatable=0;whiteSpace=wrap;html=1;fontColor=#ffffff;" vertex="1" parent="uAZB_q2s0tMn4ukExa00-1">
          <mxGeometry y="90" width="240" height="30" as="geometry" />
        </mxCell>
        <mxCell id="uAZB_q2s0tMn4ukExa00-6" value="" style="endArrow=block;html=1;rounded=0;endFill=0;strokeWidth=1;endSize=20;" edge="1" parent="1" source="uAZB_q2s0tMn4ukExa00-7" target="uAZB_q2s0tMn4ukExa00-1">
          <mxGeometry width="50" height="50" relative="1" as="geometry">
            <mxPoint x="590" y="300" as="sourcePoint" />
            <mxPoint x="479.9954545454547" y="170" as="targetPoint" />
          </mxGeometry>
        </mxCell>
        <mxCell id="uAZB_q2s0tMn4ukExa00-7" value="public abstract class CondimentDecorator" style="swimlane;fontStyle=0;childLayout=stackLayout;horizontal=1;startSize=30;horizontalStack=0;resizeParent=1;resizeParentMax=0;resizeLast=0;collapsible=1;marginBottom=0;whiteSpace=wrap;html=1;fillColor=#0050ef;fontColor=#ffffff;strokeColor=#001DBC;" vertex="1" parent="1">
          <mxGeometry x="660" y="70" width="270" height="60" as="geometry" />
        </mxCell>
        <mxCell id="uAZB_q2s0tMn4ukExa00-8" value="func: public abstract String getDescription()" style="text;strokeColor=#3700CC;fillColor=#6a00ff;align=left;verticalAlign=middle;spacingLeft=4;spacingRight=4;overflow=hidden;points=[[0,0.5],[1,0.5]];portConstraint=eastwest;rotatable=0;whiteSpace=wrap;html=1;fontColor=#ffffff;" vertex="1" parent="uAZB_q2s0tMn4ukExa00-7">
          <mxGeometry y="30" width="270" height="30" as="geometry" />
        </mxCell>
        <mxCell id="uAZB_q2s0tMn4ukExa00-11" value="public class DarkRoast" style="swimlane;fontStyle=0;childLayout=stackLayout;horizontal=1;startSize=30;horizontalStack=0;resizeParent=1;resizeParentMax=0;resizeLast=0;collapsible=1;marginBottom=0;whiteSpace=wrap;html=1;" vertex="1" parent="1">
          <mxGeometry x="-40" y="40" width="250" height="90" as="geometry" />
        </mxCell>
        <mxCell id="uAZB_q2s0tMn4ukExa00-12" value="constr: public DarkRoast() {set desc};" style="text;strokeColor=#10739e;fillColor=#b1ddf0;align=left;verticalAlign=middle;spacingLeft=4;spacingRight=4;overflow=hidden;points=[[0,0.5],[1,0.5]];portConstraint=eastwest;rotatable=0;whiteSpace=wrap;html=1;" vertex="1" parent="uAZB_q2s0tMn4ukExa00-11">
          <mxGeometry y="30" width="250" height="30" as="geometry" />
        </mxCell>
        <mxCell id="uAZB_q2s0tMn4ukExa00-13" value="func: public double cost()" style="text;strokeColor=#005700;fillColor=#008a00;align=left;verticalAlign=middle;spacingLeft=4;spacingRight=4;overflow=hidden;points=[[0,0.5],[1,0.5]];portConstraint=eastwest;rotatable=0;whiteSpace=wrap;html=1;fontColor=#ffffff;" vertex="1" parent="uAZB_q2s0tMn4ukExa00-11">
          <mxGeometry y="60" width="250" height="30" as="geometry" />
        </mxCell>
        <mxCell id="uAZB_q2s0tMn4ukExa00-15" value="" style="endArrow=block;html=1;rounded=0;endFill=0;strokeWidth=1;endSize=20;" edge="1" parent="1" source="uAZB_q2s0tMn4ukExa00-11" target="uAZB_q2s0tMn4ukExa00-1">
          <mxGeometry width="50" height="50" relative="1" as="geometry">
            <mxPoint x="448" y="287" as="sourcePoint" />
            <mxPoint x="240" y="170" as="targetPoint" />
          </mxGeometry>
        </mxCell>
        <mxCell id="uAZB_q2s0tMn4ukExa00-16" value="public class Decaf" style="swimlane;fontStyle=0;childLayout=stackLayout;horizontal=1;startSize=30;horizontalStack=0;resizeParent=1;resizeParentMax=0;resizeLast=0;collapsible=1;marginBottom=0;whiteSpace=wrap;html=1;" vertex="1" parent="1">
          <mxGeometry x="-50" y="170" width="250" height="90" as="geometry" />
        </mxCell>
        <mxCell id="uAZB_q2s0tMn4ukExa00-17" value="constr: public Decaf() {set desc};" style="text;strokeColor=#10739e;fillColor=#b1ddf0;align=left;verticalAlign=middle;spacingLeft=4;spacingRight=4;overflow=hidden;points=[[0,0.5],[1,0.5]];portConstraint=eastwest;rotatable=0;whiteSpace=wrap;html=1;" vertex="1" parent="uAZB_q2s0tMn4ukExa00-16">
          <mxGeometry y="30" width="250" height="30" as="geometry" />
        </mxCell>
        <mxCell id="uAZB_q2s0tMn4ukExa00-18" value="func: public double cost()" style="text;strokeColor=#005700;fillColor=#008a00;align=left;verticalAlign=middle;spacingLeft=4;spacingRight=4;overflow=hidden;points=[[0,0.5],[1,0.5]];portConstraint=eastwest;rotatable=0;whiteSpace=wrap;html=1;fontColor=#ffffff;" vertex="1" parent="uAZB_q2s0tMn4ukExa00-16">
          <mxGeometry y="60" width="250" height="30" as="geometry" />
        </mxCell>
        <mxCell id="uAZB_q2s0tMn4ukExa00-19" value="" style="endArrow=block;html=1;rounded=0;endFill=0;strokeWidth=1;endSize=20;" edge="1" parent="1" source="uAZB_q2s0tMn4ukExa00-16" target="uAZB_q2s0tMn4ukExa00-1">
          <mxGeometry width="50" height="50" relative="1" as="geometry">
            <mxPoint x="142" y="249" as="sourcePoint" />
            <mxPoint x="300" y="170" as="targetPoint" />
          </mxGeometry>
        </mxCell>
        <mxCell id="uAZB_q2s0tMn4ukExa00-20" value="public class Espresso" style="swimlane;fontStyle=0;childLayout=stackLayout;horizontal=1;startSize=30;horizontalStack=0;resizeParent=1;resizeParentMax=0;resizeLast=0;collapsible=1;marginBottom=0;whiteSpace=wrap;html=1;" vertex="1" parent="1">
          <mxGeometry x="-10" y="310" width="250" height="90" as="geometry" />
        </mxCell>
        <mxCell id="uAZB_q2s0tMn4ukExa00-21" value="constr: public Espresso() {set desc};" style="text;strokeColor=#10739e;fillColor=#b1ddf0;align=left;verticalAlign=middle;spacingLeft=4;spacingRight=4;overflow=hidden;points=[[0,0.5],[1,0.5]];portConstraint=eastwest;rotatable=0;whiteSpace=wrap;html=1;" vertex="1" parent="uAZB_q2s0tMn4ukExa00-20">
          <mxGeometry y="30" width="250" height="30" as="geometry" />
        </mxCell>
        <mxCell id="uAZB_q2s0tMn4ukExa00-22" value="func: public double cost()" style="text;strokeColor=#005700;fillColor=#008a00;align=left;verticalAlign=middle;spacingLeft=4;spacingRight=4;overflow=hidden;points=[[0,0.5],[1,0.5]];portConstraint=eastwest;rotatable=0;whiteSpace=wrap;html=1;fontColor=#ffffff;" vertex="1" parent="uAZB_q2s0tMn4ukExa00-20">
          <mxGeometry y="60" width="250" height="30" as="geometry" />
        </mxCell>
        <mxCell id="uAZB_q2s0tMn4ukExa00-23" value="" style="endArrow=block;html=1;rounded=0;endFill=0;strokeWidth=1;endSize=20;" edge="1" parent="1" source="uAZB_q2s0tMn4ukExa00-20" target="uAZB_q2s0tMn4ukExa00-1">
          <mxGeometry width="50" height="50" relative="1" as="geometry">
            <mxPoint x="296" y="380" as="sourcePoint" />
            <mxPoint x="392" y="170" as="targetPoint" />
          </mxGeometry>
        </mxCell>
        <mxCell id="uAZB_q2s0tMn4ukExa00-24" value="public class HouseBlend" style="swimlane;fontStyle=0;childLayout=stackLayout;horizontal=1;startSize=30;horizontalStack=0;resizeParent=1;resizeParentMax=0;resizeLast=0;collapsible=1;marginBottom=0;whiteSpace=wrap;html=1;" vertex="1" parent="1">
          <mxGeometry x="110" y="430" width="250" height="90" as="geometry" />
        </mxCell>
        <mxCell id="uAZB_q2s0tMn4ukExa00-25" value="constr: public HouseBlend() {set desc};" style="text;strokeColor=#10739e;fillColor=#b1ddf0;align=left;verticalAlign=middle;spacingLeft=4;spacingRight=4;overflow=hidden;points=[[0,0.5],[1,0.5]];portConstraint=eastwest;rotatable=0;whiteSpace=wrap;html=1;" vertex="1" parent="uAZB_q2s0tMn4ukExa00-24">
          <mxGeometry y="30" width="250" height="30" as="geometry" />
        </mxCell>
        <mxCell id="uAZB_q2s0tMn4ukExa00-26" value="func: public double cost()" style="text;strokeColor=#005700;fillColor=#008a00;align=left;verticalAlign=middle;spacingLeft=4;spacingRight=4;overflow=hidden;points=[[0,0.5],[1,0.5]];portConstraint=eastwest;rotatable=0;whiteSpace=wrap;html=1;fontColor=#ffffff;" vertex="1" parent="uAZB_q2s0tMn4ukExa00-24">
          <mxGeometry y="60" width="250" height="30" as="geometry" />
        </mxCell>
        <mxCell id="uAZB_q2s0tMn4ukExa00-27" value="" style="endArrow=block;html=1;rounded=0;endFill=0;strokeWidth=1;endSize=20;" edge="1" parent="1" source="uAZB_q2s0tMn4ukExa00-24" target="uAZB_q2s0tMn4ukExa00-1">
          <mxGeometry width="50" height="50" relative="1" as="geometry">
            <mxPoint x="328" y="420" as="sourcePoint" />
            <mxPoint x="402" y="170" as="targetPoint" />
          </mxGeometry>
        </mxCell>
        <mxCell id="uAZB_q2s0tMn4ukExa00-32" value="public class Milk" style="swimlane;fontStyle=0;childLayout=stackLayout;horizontal=1;startSize=30;horizontalStack=0;resizeParent=1;resizeParentMax=0;resizeLast=0;collapsible=1;marginBottom=0;whiteSpace=wrap;html=1;" vertex="1" parent="1">
          <mxGeometry x="1050" y="30" width="240" height="150" as="geometry">
            <mxRectangle x="750" y="240" width="60" height="30" as="alternateBounds" />
          </mxGeometry>
        </mxCell>
        <mxCell id="uAZB_q2s0tMn4ukExa00-33" value="prop: Beverage beverage;" style="text;strokeColor=#C73500;fillColor=#fa6800;align=left;verticalAlign=middle;spacingLeft=4;spacingRight=4;overflow=hidden;points=[[0,0.5],[1,0.5]];portConstraint=eastwest;rotatable=0;whiteSpace=wrap;html=1;fontColor=#000000;" vertex="1" parent="uAZB_q2s0tMn4ukExa00-32">
          <mxGeometry y="30" width="240" height="30" as="geometry" />
        </mxCell>
        <mxCell id="uAZB_q2s0tMn4ukExa00-34" value="constr: public Milk(Beverage beverage)" style="text;strokeColor=#10739e;fillColor=#b1ddf0;align=left;verticalAlign=middle;spacingLeft=4;spacingRight=4;overflow=hidden;points=[[0,0.5],[1,0.5]];portConstraint=eastwest;rotatable=0;whiteSpace=wrap;html=1;" vertex="1" parent="uAZB_q2s0tMn4ukExa00-32">
          <mxGeometry y="60" width="240" height="30" as="geometry" />
        </mxCell>
        <mxCell id="uAZB_q2s0tMn4ukExa00-35" value="func: public String getDescription()" style="text;strokeColor=#005700;fillColor=#008a00;align=left;verticalAlign=middle;spacingLeft=4;spacingRight=4;overflow=hidden;points=[[0,0.5],[1,0.5]];portConstraint=eastwest;rotatable=0;whiteSpace=wrap;html=1;fontColor=#ffffff;" vertex="1" parent="uAZB_q2s0tMn4ukExa00-32">
          <mxGeometry y="90" width="240" height="30" as="geometry" />
        </mxCell>
        <mxCell id="uAZB_q2s0tMn4ukExa00-43" value="func: public double cost()" style="text;strokeColor=#005700;fillColor=#008a00;align=left;verticalAlign=middle;spacingLeft=4;spacingRight=4;overflow=hidden;points=[[0,0.5],[1,0.5]];portConstraint=eastwest;rotatable=0;whiteSpace=wrap;html=1;fontColor=#ffffff;" vertex="1" parent="uAZB_q2s0tMn4ukExa00-32">
          <mxGeometry y="120" width="240" height="30" as="geometry" />
        </mxCell>
        <mxCell id="uAZB_q2s0tMn4ukExa00-45" value="public class Mocha" style="swimlane;fontStyle=0;childLayout=stackLayout;horizontal=1;startSize=30;horizontalStack=0;resizeParent=1;resizeParentMax=0;resizeLast=0;collapsible=1;marginBottom=0;whiteSpace=wrap;html=1;" vertex="1" parent="1">
          <mxGeometry x="510" y="280" width="240" height="150" as="geometry">
            <mxRectangle x="750" y="240" width="60" height="30" as="alternateBounds" />
          </mxGeometry>
        </mxCell>
        <mxCell id="uAZB_q2s0tMn4ukExa00-46" value="prop: Beverage beverage;" style="text;strokeColor=#C73500;fillColor=#fa6800;align=left;verticalAlign=middle;spacingLeft=4;spacingRight=4;overflow=hidden;points=[[0,0.5],[1,0.5]];portConstraint=eastwest;rotatable=0;whiteSpace=wrap;html=1;fontColor=#000000;" vertex="1" parent="uAZB_q2s0tMn4ukExa00-45">
          <mxGeometry y="30" width="240" height="30" as="geometry" />
        </mxCell>
        <mxCell id="uAZB_q2s0tMn4ukExa00-47" value="constr: public Mocha(Beverage beverage)" style="text;strokeColor=#10739e;fillColor=#b1ddf0;align=left;verticalAlign=middle;spacingLeft=4;spacingRight=4;overflow=hidden;points=[[0,0.5],[1,0.5]];portConstraint=eastwest;rotatable=0;whiteSpace=wrap;html=1;" vertex="1" parent="uAZB_q2s0tMn4ukExa00-45">
          <mxGeometry y="60" width="240" height="30" as="geometry" />
        </mxCell>
        <mxCell id="uAZB_q2s0tMn4ukExa00-48" value="func: public String getDescription()" style="text;strokeColor=#005700;fillColor=#008a00;align=left;verticalAlign=middle;spacingLeft=4;spacingRight=4;overflow=hidden;points=[[0,0.5],[1,0.5]];portConstraint=eastwest;rotatable=0;whiteSpace=wrap;html=1;fontColor=#ffffff;" vertex="1" parent="uAZB_q2s0tMn4ukExa00-45">
          <mxGeometry y="90" width="240" height="30" as="geometry" />
        </mxCell>
        <mxCell id="uAZB_q2s0tMn4ukExa00-49" value="func: public double cost()" style="text;strokeColor=#005700;fillColor=#008a00;align=left;verticalAlign=middle;spacingLeft=4;spacingRight=4;overflow=hidden;points=[[0,0.5],[1,0.5]];portConstraint=eastwest;rotatable=0;whiteSpace=wrap;html=1;fontColor=#ffffff;" vertex="1" parent="uAZB_q2s0tMn4ukExa00-45">
          <mxGeometry y="120" width="240" height="30" as="geometry" />
        </mxCell>
        <mxCell id="uAZB_q2s0tMn4ukExa00-51" value="" style="endArrow=block;html=1;rounded=0;endFill=0;strokeWidth=1;endSize=20;" edge="1" parent="1" source="uAZB_q2s0tMn4ukExa00-45" target="uAZB_q2s0tMn4ukExa00-7">
          <mxGeometry width="50" height="50" relative="1" as="geometry">
            <mxPoint x="680" y="110" as="sourcePoint" />
            <mxPoint x="860" y="300" as="targetPoint" />
          </mxGeometry>
        </mxCell>
        <mxCell id="uAZB_q2s0tMn4ukExa00-52" value="public class Soy" style="swimlane;fontStyle=0;childLayout=stackLayout;horizontal=1;startSize=30;horizontalStack=0;resizeParent=1;resizeParentMax=0;resizeLast=0;collapsible=1;marginBottom=0;whiteSpace=wrap;html=1;" vertex="1" parent="1">
          <mxGeometry x="800" y="300" width="240" height="150" as="geometry">
            <mxRectangle x="750" y="240" width="60" height="30" as="alternateBounds" />
          </mxGeometry>
        </mxCell>
        <mxCell id="uAZB_q2s0tMn4ukExa00-53" value="prop: Beverage beverage;" style="text;strokeColor=#C73500;fillColor=#fa6800;align=left;verticalAlign=middle;spacingLeft=4;spacingRight=4;overflow=hidden;points=[[0,0.5],[1,0.5]];portConstraint=eastwest;rotatable=0;whiteSpace=wrap;html=1;fontColor=#000000;" vertex="1" parent="uAZB_q2s0tMn4ukExa00-52">
          <mxGeometry y="30" width="240" height="30" as="geometry" />
        </mxCell>
        <mxCell id="uAZB_q2s0tMn4ukExa00-54" value="constr: public Soy(Beverage beverage)" style="text;strokeColor=#10739e;fillColor=#b1ddf0;align=left;verticalAlign=middle;spacingLeft=4;spacingRight=4;overflow=hidden;points=[[0,0.5],[1,0.5]];portConstraint=eastwest;rotatable=0;whiteSpace=wrap;html=1;" vertex="1" parent="uAZB_q2s0tMn4ukExa00-52">
          <mxGeometry y="60" width="240" height="30" as="geometry" />
        </mxCell>
        <mxCell id="uAZB_q2s0tMn4ukExa00-55" value="func: public String getDescription()" style="text;strokeColor=#005700;fillColor=#008a00;align=left;verticalAlign=middle;spacingLeft=4;spacingRight=4;overflow=hidden;points=[[0,0.5],[1,0.5]];portConstraint=eastwest;rotatable=0;whiteSpace=wrap;html=1;fontColor=#ffffff;" vertex="1" parent="uAZB_q2s0tMn4ukExa00-52">
          <mxGeometry y="90" width="240" height="30" as="geometry" />
        </mxCell>
        <mxCell id="uAZB_q2s0tMn4ukExa00-56" value="func: public double cost()" style="text;strokeColor=#005700;fillColor=#008a00;align=left;verticalAlign=middle;spacingLeft=4;spacingRight=4;overflow=hidden;points=[[0,0.5],[1,0.5]];portConstraint=eastwest;rotatable=0;whiteSpace=wrap;html=1;fontColor=#ffffff;" vertex="1" parent="uAZB_q2s0tMn4ukExa00-52">
          <mxGeometry y="120" width="240" height="30" as="geometry" />
        </mxCell>
        <mxCell id="uAZB_q2s0tMn4ukExa00-57" value="" style="endArrow=block;html=1;rounded=0;endFill=0;strokeWidth=1;endSize=20;" edge="1" parent="1" source="uAZB_q2s0tMn4ukExa00-52" target="uAZB_q2s0tMn4ukExa00-7">
          <mxGeometry width="50" height="50" relative="1" as="geometry">
            <mxPoint x="1057" y="400" as="sourcePoint" />
            <mxPoint x="840" y="140" as="targetPoint" />
          </mxGeometry>
        </mxCell>
        <mxCell id="uAZB_q2s0tMn4ukExa00-58" value="" style="endArrow=block;html=1;rounded=0;endFill=0;strokeWidth=1;endSize=20;" edge="1" parent="1" source="uAZB_q2s0tMn4ukExa00-32" target="uAZB_q2s0tMn4ukExa00-7">
          <mxGeometry width="50" height="50" relative="1" as="geometry">
            <mxPoint x="937" y="390" as="sourcePoint" />
            <mxPoint x="828" y="140" as="targetPoint" />
          </mxGeometry>
        </mxCell>
        <mxCell id="uAZB_q2s0tMn4ukExa00-59" value="public class Whip" style="swimlane;fontStyle=0;childLayout=stackLayout;horizontal=1;startSize=30;horizontalStack=0;resizeParent=1;resizeParentMax=0;resizeLast=0;collapsible=1;marginBottom=0;whiteSpace=wrap;html=1;" vertex="1" parent="1">
          <mxGeometry x="1060" y="220" width="240" height="150" as="geometry">
            <mxRectangle x="750" y="240" width="60" height="30" as="alternateBounds" />
          </mxGeometry>
        </mxCell>
        <mxCell id="uAZB_q2s0tMn4ukExa00-60" value="prop: Beverage beverage;" style="text;strokeColor=#C73500;fillColor=#fa6800;align=left;verticalAlign=middle;spacingLeft=4;spacingRight=4;overflow=hidden;points=[[0,0.5],[1,0.5]];portConstraint=eastwest;rotatable=0;whiteSpace=wrap;html=1;fontColor=#000000;" vertex="1" parent="uAZB_q2s0tMn4ukExa00-59">
          <mxGeometry y="30" width="240" height="30" as="geometry" />
        </mxCell>
        <mxCell id="uAZB_q2s0tMn4ukExa00-61" value="constr: public Whip(Beverage beverage)" style="text;strokeColor=#10739e;fillColor=#b1ddf0;align=left;verticalAlign=middle;spacingLeft=4;spacingRight=4;overflow=hidden;points=[[0,0.5],[1,0.5]];portConstraint=eastwest;rotatable=0;whiteSpace=wrap;html=1;" vertex="1" parent="uAZB_q2s0tMn4ukExa00-59">
          <mxGeometry y="60" width="240" height="30" as="geometry" />
        </mxCell>
        <mxCell id="uAZB_q2s0tMn4ukExa00-62" value="func: public String getDescription()" style="text;strokeColor=#005700;fillColor=#008a00;align=left;verticalAlign=middle;spacingLeft=4;spacingRight=4;overflow=hidden;points=[[0,0.5],[1,0.5]];portConstraint=eastwest;rotatable=0;whiteSpace=wrap;html=1;fontColor=#ffffff;" vertex="1" parent="uAZB_q2s0tMn4ukExa00-59">
          <mxGeometry y="90" width="240" height="30" as="geometry" />
        </mxCell>
        <mxCell id="uAZB_q2s0tMn4ukExa00-63" value="func: public double cost()" style="text;strokeColor=#005700;fillColor=#008a00;align=left;verticalAlign=middle;spacingLeft=4;spacingRight=4;overflow=hidden;points=[[0,0.5],[1,0.5]];portConstraint=eastwest;rotatable=0;whiteSpace=wrap;html=1;fontColor=#ffffff;" vertex="1" parent="uAZB_q2s0tMn4ukExa00-59">
          <mxGeometry y="120" width="240" height="30" as="geometry" />
        </mxCell>
        <mxCell id="uAZB_q2s0tMn4ukExa00-64" value="" style="endArrow=block;html=1;rounded=0;endFill=0;strokeWidth=1;endSize=20;" edge="1" parent="1" source="uAZB_q2s0tMn4ukExa00-59" target="uAZB_q2s0tMn4ukExa00-7">
          <mxGeometry width="50" height="50" relative="1" as="geometry">
            <mxPoint x="931" y="390" as="sourcePoint" />
            <mxPoint x="935" y="140" as="targetPoint" />
          </mxGeometry>
        </mxCell>
      </root>
    </mxGraphModel>
  </diagram>
</mxfile>
